<svg xmlns="http://www.w3.org/2000/svg" viewBox="0 0 400 500" role="img" aria-labelledby="title description">
  <title id="title">Cartoon portfolio avatar placeholder</title>
  <desc id="description">A dark-skinned cartoon character wearing a blue hoodie.</desc>
  <rect width="400" height="500" fill="#f2b4ad"/>
  <path d="M61 500V458c0-56 47-94 105-94h68c58 0 105 38 105 94v42Z" fill="#5da9bd" stroke="#111" stroke-width="7" stroke-linejoin="round"/>
  <path d="M151 367c11 17 87 17 98 0l-5-92h-88Z" fill="#83523b" stroke="#111" stroke-width="7" stroke-linejoin="round"/>
  <path d="M91 475c18-54 53-83 109-83 57 0 92 29 109 83" fill="none" stroke="#a9e1ea" stroke-width="16" stroke-linecap="round"/>
  <path d="M148 390c7 25 21 39 52 39s46-14 52-39" fill="#e7f6f5" stroke="#111" stroke-width="7" stroke-linejoin="round"/>
  <path d="M143 404l-13 71m127-71 13 71" fill="none" stroke="#111" stroke-width="6" stroke-linecap="round"/>
  <path d="M143 404l-13 71m127-71 13 71" fill="none" stroke="#e7f6f5" stroke-width="3" stroke-linecap="round"/>
  <g id="portrait">
    <animateTransform attributeName="transform" type="translate" values="0 0;0 -3;0 0" dur="4s" repeatCount="indefinite"/>
    <path d="M114 215c-17-5-28 9-23 34 3 20 15 33 31 35Zm172 0c17-5 28 9 23 34-3 20-15 33-31 35Z" fill="#83523b" stroke="#111" stroke-width="7" stroke-linejoin="round"/>
    <path d="M112 151c0-66 41-108 88-108s88 42 88 108v80c0 72-37 120-88 120s-88-48-88-120Z" fill="#83523b" stroke="#111" stroke-width="7" stroke-linejoin="round"/>
    <path d="M93 193c1-88 45-145 107-145 70 0 113 56 106 151l-26 42-11-68-22 25-17-42-30 39-18-42-27 42-15-26-21 66Z" fill="#1c1514" stroke="#111" stroke-width="7" stroke-linejoin="round"/>
    <path d="M118 167c-8 20-16 34-31 48m43-78c-6 20-12 34-25 51m58-73c-7 23-12 40-24 58m57-62c-4 20-8 38-18 55m49-52c4 21 10 39 20 56m15-35c8 23 15 39 28 52m11-24c6 17 14 29 25 38" fill="none" stroke="#1c1514" stroke-width="17" stroke-linecap="round"/>
    <path d="M132 226c12-10 30-10 42 0m52 0c12-10 30-10 42 0" fill="none" stroke="#111" stroke-width="8" stroke-linecap="round"/>
    <ellipse cx="153" cy="249" rx="25" ry="29" fill="#fffdf8" stroke="#111" stroke-width="6"/>
    <ellipse cx="247" cy="249" rx="25" ry="29" fill="#fffdf8" stroke="#111" stroke-width="6"/>
    <circle cx="153" cy="253" r="13" fill="#111"/>
    <circle cx="247" cy="253" r="13" fill="#111"/>
    <circle cx="158" cy="248" r="4" fill="#fff"/>
    <circle cx="252" cy="248" r="4" fill="#fff"/>
    <path d="M202 260l-7 26 12 2" fill="none" stroke="#111" stroke-width="5" stroke-linecap="round" stroke-linejoin="round"/>
    <path d="M177 310c14 9 31 9 46 0" fill="none" stroke="#111" stroke-width="5" stroke-linecap="round"/>
    <path d="M111 279c6 8 15 9 21 3m157-3c-6 8-15 9-21 3" fill="none" stroke="#603a2b" stroke-width="5" stroke-linecap="round"/>
  </g>
</svg>